<?xml version="1.0" encoding="utf-8"?>
<!-- Generator: Adobe Illustrator 16.0.0, SVG Export Plug-In . SVG Version: 6.00 Build 0)  -->
<!DOCTYPE svg PUBLIC "-//W3C//DTD SVG 1.1//EN" "http://www.w3.org/Graphics/SVG/1.1/DTD/svg11.dtd">
<svg version="1.1" id="Capa_1" xmlns="http://www.w3.org/2000/svg" xmlns:xlink="http://www.w3.org/1999/xlink" x="0px" y="0px"
	 width="595.28px" height="841.89px" viewBox="0 0 595.28 841.89" enable-background="new 0 0 595.28 841.89" xml:space="preserve">
<path fill="#3B98D4" d="M366.191,146.352c0-41.713-44.248-46.58-44.248-46.58s-12.166-7.313-22.074-3.656
	c-5.458,2.015-8.483,6.193-9.755,10.469v-0.058h-14.062c-11.4,1.024-20.529,1.792-22.602,0.968c-2.51-1.409-5.697-0.553-7.164,1.939
	c-0.498,0.843-0.734,1.771-0.734,2.683c0,1.82,0.936,3.589,2.617,4.578c4.646,2.732,17.643,1.628,27.883,0.718
	c0.023,0,0.047-0.006,0.068-0.006c1.518,0,2.748,1.194,2.748,2.665c0,1.472-1.23,2.666-2.748,2.666
	c-0.021,0-0.045-0.007-0.068-0.007v0.009c-14.574-1.205-32.543,2.393-33.322,2.552c-2.516,0.511-4.248,2.723-4.248,5.193
	c0,0.349,0.033,0.704,0.107,1.061c0.582,2.87,3.379,4.725,6.254,4.142c0.17-0.035,16.717-3.447,29.693-2.527
	c0.455,0.034,0.455,0.034,0.703,0.034c2.127,0,3.852,1.672,3.852,3.736c0,3.777-3.16,6.846-7.057,6.846
	c-0.025,0-0.049-0.004-0.072-0.004c-5.389-0.579-25.348-2.378-38.117-1.049c-2.729,0.284-4.756,2.587-4.756,5.269
	c0,0.184,0.008,0.371,0.029,0.557c0.303,2.913,2.912,5.029,5.822,4.725c12.914-1.344,35.232,1.124,37.021,1.327v0.086
	c1.736,0.364,3.037,1.859,3.037,3.648c0,2.064-1.723,3.739-3.85,3.739c-0.248,0-0.488-0.029-0.721-0.072
	c-12.949,0.915-29.504-2.392-29.678-2.425c-2.873-0.583-5.67,1.273-6.252,4.145c-0.074,0.354-0.107,0.711-0.107,1.06
	c0,2.47,1.736,4.682,4.248,5.19c0.781,0.161,18.75,3.758,33.322,2.556c0.023-0.003,0.047,0.001,0.068,0.001
	c1.518,0,2.75,1.194,2.75,2.662c0,1.473-1.303,2.697-2.818,2.697c-10.24-0.908-23.236-1.391-27.883,1.342
	c-1.682,0.988-2.617,2.76-2.617,4.576c0,0.916,0.238,1.842,0.736,2.686c1.465,2.492,4.652,3.347,7.162,1.94
	c2.072-0.826,11.203-0.906,22.602,0.118h18.152v-0.25c1.271,4.276,4.297,8.452,9.755,10.469c9.908,3.656,22.074-3.657,22.074-3.657
	s12.365-1.362,24.023-8.807c-1.357-0.206-2.822-0.458-4.422-0.765c-2.262-0.434-3.744-2.619-3.311-4.882s2.621-3.745,4.883-3.312
	c6.209,1.19,9.844,1.443,12.066,1.299c6.32-6.871,11.008-16.54,11.008-30.113c0-0.375-0.02-0.728-0.029-1.09
	C366.172,147.079,366.191,146.726,366.191,146.352z M330.363,165.339c-2.629,0-4.758-2.131-4.758-4.758s2.129-4.758,4.758-4.758
	c2.627,0,4.758,2.13,4.758,4.758S332.99,165.339,330.363,165.339z"/>
<g>
	<path fill="#3B98D4" d="M260.052,227.893c-0.292,0.004-0.629-0.045-1.014-0.146c-1.473-0.391-2.524-1.02-3.156-1.885
		c-0.699-0.955-1.354-2.547-1.962-4.775c-0.649-2.332-1.257-3.943-1.823-4.836c0,0.014-0.271,1.021-0.816,3.025
		c-0.43,1.578-0.844,2.885-1.241,3.922c-1.229,3.254-2.616,4.922-4.163,5.008h-0.039c-1.229,0.014-2.213-2.062-2.951-6.23
		c-0.511-2.863-0.766-4.314-0.768-4.354c-0.28-1.332-0.599-1.996-0.955-1.992c0.001,0.106-0.957,2.921-2.872,8.443
		c-0.613,1.793-1.292,2.979-2.039,3.555c-0.406,0.309-0.841,0.467-1.303,0.473c-0.648,0.008-1.351,0.047-2.124-0.525
		c0,0-0.893-0.645-1.151-1.926c-0.535-2.656,7.692-16.75,7.692-16.75c0.814-1.279,1.249-1.273,1.897-1.281
		c0.542-0.006,1.119,0.165,1.731,0.515c0.852,0.492,1.638,2.062,2.357,4.711c0.899,3.308,1.39,5.046,1.471,5.218
		c0.168-0.359,0.79-2.502,1.865-6.429c0.747-2.719,1.705-4.356,2.875-4.913c2.57,0.379,4.725,3.083,6.465,8.111
		c0.438,1.264,1.052,3.338,1.84,6.225c0.679,2.49,1.208,4.195,1.591,5.115C261.473,227.309,261.004,227.881,260.052,227.893z"/>
	<path fill="#3B98D4" d="M303.547,228.6c-0.559,0.006-1.096-0.201-1.611-0.625c-0.721-0.584-1.293-1.889-1.719-3.912
		c-0.127-0.6-0.225-1.029-0.291-1.283c-0.652,1.213-1.557,2.299-2.715,3.252c-1.238,1.021-2.365,1.537-3.379,1.549
		c-0.822,0.01-1.465-0.334-1.93-1.031c-0.494-0.752-0.75-1.881-0.768-3.389c-0.02-1.57,0.254-3.424,0.822-5.561
		c0.717-2.739,1.621-4.134,2.717-4.184h0.014c0.402-0.005,0.715,0.123,0.938,0.386c0.223,0.271,0.338,0.769,0.346,1.489
		c0.014,1.069-0.201,2.625-0.641,4.667c-0.338,1.576-0.504,2.605-0.498,3.09c0.002,0.174,0.025,0.277,0.072,0.314
		c0.047-0.002,0.109-0.025,0.191-0.072c1.242-0.781,2.156-1.912,2.74-3.389c0.336-0.855,0.627-2.105,0.873-3.752
		c0.152-1.035,0.299-1.731,0.439-2.088c0.23-0.569,0.588-0.856,1.072-0.862c0.949-0.012,1.625,0.638,2.023,1.948
		c0.238,0.764,0.418,2.038,0.541,3.817c0.066,0.939,0.129,1.568,0.188,1.889c0.107,0.555,0.383,1.43,0.826,2.621
		c0.623,1.682,0.939,2.91,0.949,3.688C304.76,228.11,304.359,228.59,303.547,228.6z"/>
	<path fill="#3B98D4" d="M316.254,226.426c-1.441,0.914-2.889,1.379-4.34,1.396l-0.246,0.004c-0.521,0.006-1.002-0.121-1.443-0.381
		c-0.414-0.242-0.701-0.545-0.861-0.908c-0.066-0.162-0.1-0.318-0.102-0.463c-0.002-0.211,0.055-0.408,0.172-0.592
		c0.232-0.359,0.672-0.621,1.318-0.783c1.578-0.275,2.371-0.414,2.379-0.414c0.857-0.221,1.283-0.477,1.279-0.768
		c-0.002-0.129-0.039-0.225-0.113-0.287l-0.111-0.094c-0.43-0.115-2.613-0.865-6.549-2.25c-1.439-0.514-2.434-1.1-2.98-1.76
		c-0.361-0.434-0.547-0.92-0.553-1.459c-0.006-0.475,0.125-0.988,0.393-1.539c0.295-0.588,1.047-1.137,2.254-1.645
		c1.127-0.471,2.42-0.819,3.879-1.047c0.867-0.139,1.66-0.213,2.381-0.221c0.512-0.007,0.992,0.02,1.439,0.078
		c1.199,0.15,1.916,0.516,2.152,1.098c0.234,0.554,0.355,1.06,0.361,1.516c0.004,0.348-0.057,0.668-0.182,0.961
		c-0.203,0.496-0.529,0.748-0.977,0.752c-0.236,0.004-0.504-0.057-0.797-0.182c-1.359-0.559-2.535-0.832-3.531-0.82
		c-1.061,0.014-1.91,0.352-2.551,1.018c0.164-0.002,2.021,0.523,5.568,1.576c2.65,0.781,3.982,1.844,4,3.186
		c0.029,0.191,0.045,0.379,0.047,0.561C318.559,224.293,317.795,225.45,316.254,226.426z"/>
	<path fill="#3B98D4" d="M336.213,226.713c-0.18-0.355-0.512-0.795-1.01-1.342c-0.182-0.203-0.307-0.348-0.377-0.438
		c-0.443-0.566-0.963-1.562-1.541-2.953c0.822-0.355,1.297-0.779,1.469-1.299c0.057-0.15,0.084-0.301,0.082-0.449
		c-0.004-0.207-0.064-0.52-0.34-0.83c-0.344-0.387-0.824-0.59-1.391-0.582c-0.195,0.002-0.455,0.037-0.793,0.105
		c-0.09,0.02-0.162,0.033-0.227,0.041c-0.016-0.047-0.035-0.107-0.055-0.184c-0.049-0.17-0.09-0.299-0.117-0.373
		c-0.455-1.332-0.834-2.891-1.127-4.633c-0.414-2.453-2.016-2.801-2.945-2.789c-0.885,0.026-1.658,0.637-2.299,1.809
		c-0.322,0.584-0.672,1.453-1.068,2.653c-0.113,0.332-0.189,0.552-0.221,0.644c-1.207,3.191-2.041,3.77-2.348,3.871
		c-0.576,0.195-1,0.402-1.307,0.643c-0.359,0.293-0.654,0.721-0.869,1.256c-0.086,0.197-0.129,0.391-0.127,0.572
		c0.002,0.203,0.061,0.396,0.18,0.578c0.123,0.176,0.414,0.467,0.994,0.461c0.039-0.002,0.08-0.002,0.125-0.006
		c-0.078,0.164-0.18,0.367-0.305,0.611c-0.986,1.941-1.094,2.68-1.09,3.064c0.002,0.166,0.029,0.318,0.074,0.439
		c0.121,0.34,0.361,0.592,0.713,0.736c0.178,0.066,0.365,0.1,0.561,0.098c0.654-0.008,1.297-0.447,2.023-1.385
		c0.352-0.461,1.195-1.826,2.574-4.174c1.123-0.219,1.982-0.342,2.549-0.363c0.074-0.002,0.211-0.008,0.408-0.023
		c0.229-0.02,0.406-0.029,0.531-0.031c0.482-0.006,0.668,0.1,0.697,0.154c0.195,0.357,0.479,0.936,0.842,1.715
		c0.352,0.762,0.619,1.311,0.818,1.68c0.25,0.463,0.641,1.029,1.193,1.734c1.004,1.273,1.818,1.861,2.559,1.852
		c0.318-0.002,0.906-0.121,1.25-0.873c0.133-0.291,0.199-0.598,0.195-0.908C336.492,227.434,336.396,227.069,336.213,226.713z
		 M327.305,219.647c-0.58,0.143-1.004,0.234-1.268,0.277c0.076-0.205,0.213-0.594,0.408-1.166c0.611-1.777,1.068-2.948,1.365-3.512
		c0.289,0.461,0.605,1.538,0.947,3.229c0.084,0.395,0.145,0.678,0.18,0.846C328.594,219.354,328.049,219.461,327.305,219.647z"/>
	<path fill="#3B98D4" d="M362.803,214.623c-0.666-0.758-1.854-1.458-3.631-2.14c-0.816-0.31-2.133-0.664-4.027-1.083
		c-0.133-0.028-0.227-0.095-0.309-0.219c-0.266-0.406-0.688-0.631-1.191-0.635c-0.635-0.053-1.25,0.178-1.814,0.673
		c-0.02,0.018-0.139,0.115-0.547,0.299c-0.416,0.185-0.717,0.384-0.922,0.612c-0.395,0.445-0.584,0.865-0.578,1.287
		c0.002,0.203,0.051,0.397,0.145,0.579c0.131,0.254,0.447,0.664,1.139,0.727c-0.004,0.07-0.014,0.149-0.027,0.236l-0.008,0.052
		l0.002,0.137c-0.002,0.191-0.023,0.475-0.062,0.856c-0.041,0.508-0.045,0.668-0.045,0.762c0.025,0.799,0.08,1.959,0.164,3.447
		l-0.318,0.238l-0.059,0.051c-0.385,0.369-0.461,0.752-0.459,1.01c0.002,0.07,0.008,0.141,0.02,0.223
		c0.049,0.277,0.219,0.674,0.748,0.994c0.166,0.1,0.254,0.16,0.299,0.193c0.053,0.139,0.162,0.557,0.176,1.688
		c0.002,0.145,0,0.301-0.002,0.471c-0.002,0.316-0.002,0.607,0.002,0.877c0.016,1.338,0.1,1.762,0.174,1.984
		c0.162,0.496,0.611,0.949,1.367,1.387c0.418,0.289,0.797,0.426,1.16,0.422c0.389-0.004,0.73-0.176,0.992-0.5
		c0.316-0.398,0.457-1.064,0.443-2.096l-0.002-0.195c-0.002-0.16-0.027-0.449-0.199-1.289c-0.164-0.771-0.27-1.293-0.309-1.551
		c-0.068-0.412-0.105-0.762-0.107-1.037c-0.004-0.209,0.014-0.334,0.029-0.404c0.297-0.061,0.973-0.197,2.016-0.412
		c0.936-0.191,1.709-0.387,2.299-0.582c1.824-0.6,3.076-1.553,3.715-2.834c0.377-0.746,0.564-1.461,0.557-2.123
		C363.621,215.948,363.344,215.24,362.803,214.623z M359.854,217.163c0.002,0.18-0.412,0.641-2,1.1
		c-0.406,0.117-1.406,0.316-2.979,0.592c-0.018-0.441-0.035-1.113-0.047-2.139c-0.006-0.398-0.01-0.934-0.016-1.603
		c2.416,0.534,2.92,0.655,2.975,0.67c1.959,0.699,2.064,1.244,2.066,1.347V217.163z"/>
	<path fill="#3B98D4" d="M348.83,214.623c-0.666-0.758-1.854-1.458-3.631-2.14c-0.816-0.31-2.133-0.664-4.027-1.083
		c-0.133-0.028-0.227-0.095-0.309-0.219c-0.266-0.406-0.688-0.631-1.191-0.635c-0.635-0.053-1.25,0.178-1.814,0.673
		c-0.02,0.018-0.139,0.115-0.547,0.299c-0.416,0.185-0.717,0.384-0.922,0.612c-0.395,0.445-0.584,0.865-0.578,1.287
		c0.002,0.203,0.051,0.397,0.145,0.579c0.131,0.254,0.447,0.664,1.139,0.727c-0.004,0.07-0.014,0.149-0.027,0.236l-0.008,0.052
		l0.002,0.137c-0.002,0.191-0.023,0.475-0.062,0.856c-0.041,0.508-0.045,0.668-0.045,0.762c0.025,0.799,0.08,1.959,0.164,3.447
		l-0.318,0.238l-0.059,0.051c-0.385,0.369-0.461,0.752-0.459,1.01c0.002,0.07,0.008,0.141,0.02,0.223
		c0.049,0.277,0.219,0.674,0.748,0.994c0.166,0.1,0.254,0.16,0.299,0.193c0.053,0.139,0.162,0.557,0.176,1.688
		c0.002,0.145,0,0.301-0.002,0.471c-0.002,0.316-0.002,0.607,0.002,0.877c0.016,1.338,0.1,1.762,0.174,1.984
		c0.162,0.496,0.611,0.949,1.367,1.387c0.418,0.289,0.797,0.426,1.16,0.422c0.389-0.004,0.73-0.176,0.992-0.5
		c0.316-0.398,0.457-1.064,0.443-2.096l-0.002-0.195c-0.002-0.16-0.027-0.449-0.199-1.289c-0.164-0.771-0.27-1.293-0.309-1.551
		c-0.068-0.412-0.105-0.762-0.107-1.037c-0.004-0.209,0.014-0.334,0.029-0.404c0.297-0.061,0.973-0.197,2.016-0.412
		c0.936-0.191,1.709-0.387,2.299-0.582c1.824-0.6,3.076-1.553,3.715-2.834c0.377-0.746,0.564-1.461,0.557-2.123
		C349.648,215.948,349.371,215.24,348.83,214.623z M345.881,217.163c0.002,0.18-0.412,0.641-2,1.1
		c-0.406,0.117-1.406,0.316-2.979,0.592c-0.018-0.441-0.035-1.113-0.047-2.139c-0.006-0.398-0.01-0.934-0.016-1.603
		c2.416,0.534,2.92,0.655,2.975,0.67c1.959,0.699,2.064,1.244,2.066,1.347V217.163z"/>
	<path fill="#3B98D4" d="M289.164,223.28c-1.123-2.115-1.895-4.061-2.318-5.836c-0.27-1.094-0.416-2.704-0.443-4.832
		c-0.004-0.329-0.002-0.671,0.002-1.028c0.002-0.639,0-1.113-0.004-1.424l-0.01-0.809c-0.029-2.338-0.121-3.986-0.279-4.943
		c-0.068-0.438-0.215-0.869-0.439-1.297c-0.271-0.498-0.559-0.76-0.859-0.784c-0.102-0.008-0.201-0.011-0.303-0.01
		c-0.621,0.008-1.115,0.21-1.486,0.607c-0.541,0.573-0.801,1.75-0.779,3.53c0.004,0.283,0.018,0.58,0.039,0.891l0.016,0.137
		c0.012,0.283,0.021,0.658,0.027,1.123c0.008,0.621,0.008,1.402,0.002,2.344c-0.01,0.749-0.012,1.425-0.004,2.027
		c0.016,1.197,0.057,2.096,0.129,2.698c0.004,0.384-0.779,0.9-2.352,1.55c-0.637,0.264-1.045,0.455-1.227,0.576
		c-1.4,0.977-2.51,1.979-3.326,3.004c-0.395,0.445-0.865,0.998-1.418,1.658c-1.053,1.273-2.113,2.035-3.18,2.285
		c-0.254,0.059-0.5,0.088-0.738,0.092c-0.83,0.01-1.57-0.328-2.219-1.016c-0.305-0.324-0.469-0.584-0.488-0.775v-0.027
		c-0.002-0.154,0.092-0.283,0.283-0.387c0.082-0.037,0.326-0.131,0.736-0.283c0.363-0.131,0.654-0.271,0.871-0.422
		c1.332-0.893,1.99-2.057,1.973-3.49c-0.006-0.484-0.09-1.004-0.252-1.559c-0.609-1.226-1.338-2.144-2.186-2.755
		c-0.746-0.538-1.543-0.803-2.393-0.793c-0.311,0.004-0.625,0.044-0.945,0.121c-2.342,0.55-3.625,1.639-3.852,3.267
		c-0.125,0.906-0.184,1.738-0.174,2.496c0.021,1.799,0.422,3.211,1.201,4.232c2.293,3.006,4.777,4.492,7.453,4.459
		c0.539-0.006,1.082-0.072,1.629-0.197c0.711-0.258,1.414-0.641,2.111-1.146c0.002,0.008,0.002,0.016,0.004,0.023
		c0.01,0.85,0.729,1.266,2.152,1.248c1.006-0.012,2.104-0.189,3.297-0.533c2.566-0.734,4.281-2.057,5.145-3.967
		c0.139,0.182,0.377,0.529,0.711,1.047c1.369,2.121,2.451,3.176,3.246,3.166c0.656-0.008,1.221-0.535,1.693-1.582
		c0.07-0.166,0.105-0.34,0.102-0.521C290.307,224.852,289.924,224.129,289.164,223.28z M265.916,220.768
		c-0.627-0.449-0.947-1.285-0.961-2.51c-0.008-0.549,0.092-0.979,0.299-1.291c0.197-0.305,0.479-0.459,0.844-0.463
		c0.062-0.002,0.133,0.002,0.205,0.01c0.568,0.066,1,0.326,1.297,0.779c0.225,0.336,0.338,0.723,0.344,1.162
		c0.002,0.09-0.002,0.182-0.01,0.273c-0.049,0.557-0.244,1.025-0.586,1.404C266.979,220.549,266.5,220.76,265.916,220.768z
		 M280.949,222.778c-0.801,0.895-1.604,1.348-2.408,1.357l-0.371-0.037c-0.148-0.18-0.223-0.375-0.227-0.586
		c0-0.092,0.012-0.182,0.039-0.273c0.148-0.551,0.717-1.146,1.705-1.789c0.797-0.529,1.654-0.965,2.572-1.305
		C282.152,221.032,281.715,221.909,280.949,222.778z"/>
</g>
<g>
	<path fill="#3B98D4" d="M191.559,716.552c-0.824,0.01-1.774-0.127-2.86-0.414c-4.156-1.103-7.125-2.877-8.908-5.319
		c-1.973-2.695-3.82-7.188-5.537-13.478c-1.833-6.581-3.547-11.129-5.146-13.646c0,0.038-0.766,2.883-2.304,8.537
		c-1.212,4.454-2.381,8.142-3.503,11.067c-3.47,9.184-7.383,13.891-11.749,14.133h-0.11c-3.47,0.04-6.246-5.819-8.329-17.583
		c-1.441-8.08-2.161-12.176-2.166-12.285c-0.791-3.76-1.689-5.634-2.696-5.622c0.003,0.302-2.701,8.245-8.105,23.827
		c-1.73,5.061-3.646,8.407-5.754,10.033c-1.146,0.871-2.373,1.316-3.676,1.334c-1.831,0.021-3.812,0.131-5.995-1.483
		c0,0-2.519-1.818-3.249-5.435c-1.511-7.497,21.709-47.272,21.709-47.272c2.298-3.609,3.525-3.594,5.355-3.615
		c1.529-0.017,3.158,0.463,4.886,1.449c2.403,1.39,4.622,5.822,6.653,13.295c2.539,9.338,3.922,14.244,4.151,14.729
		c0.474-1.015,2.229-7.062,5.264-18.146c2.108-7.673,4.812-12.292,8.114-13.862c7.253,1.068,13.333,8.697,18.244,22.892
		c1.238,3.565,2.968,9.42,5.192,17.565c1.916,7.029,3.41,11.842,4.49,14.437C195.569,714.902,194.247,716.518,191.559,716.552z"/>
	<path fill="#3B98D4" d="M314.31,718.547c-1.576,0.016-3.092-0.569-4.547-1.765c-2.034-1.647-3.649-5.33-4.851-11.04
		c-0.358-1.693-0.634-2.904-0.821-3.621c-1.842,3.423-4.393,6.486-7.662,9.178c-3.494,2.881-6.674,4.338-9.535,4.37
		c-2.321,0.027-4.134-0.943-5.446-2.91c-1.395-2.123-2.116-5.309-2.166-9.563c-0.055-4.433,0.717-9.662,2.321-15.693
		c2.023-7.728,4.575-11.669,7.667-11.808h0.039c1.136-0.016,2.017,0.349,2.646,1.086c0.628,0.767,0.954,2.172,0.976,4.207
		c0.039,3.015-0.567,7.408-1.808,13.168c-0.954,4.448-1.422,7.353-1.406,8.721c0.005,0.49,0.072,0.782,0.204,0.887
		c0.132-0.006,0.309-0.071,0.541-0.204c3.505-2.205,6.085-5.396,7.733-9.562c0.947-2.416,1.769-5.942,2.464-10.589
		c0.43-2.921,0.843-4.884,1.239-5.893c0.65-1.61,1.659-2.42,3.026-2.437c2.679-0.033,4.586,1.803,5.71,5.5
		c0.673,2.156,1.18,5.749,1.527,10.771c0.188,2.65,0.363,4.427,0.528,5.33c0.304,1.566,1.081,4.034,2.333,7.397
		c1.758,4.746,2.651,8.213,2.678,10.406C317.733,717.163,316.603,718.518,314.31,718.547z"/>
	<path fill="#3B98D4" d="M350.172,712.411c-4.068,2.58-8.152,3.893-12.248,3.94l-0.694,0.012c-1.473,0.017-2.828-0.342-4.074-1.074
		c-1.168-0.685-1.979-1.538-2.43-2.564c-0.188-0.457-0.282-0.897-0.287-1.305c-0.006-0.596,0.154-1.153,0.484-1.671
		c0.656-1.015,1.896-1.753,3.722-2.21c4.453-0.778,6.69-1.169,6.714-1.169c2.419-0.623,3.621-1.345,3.609-2.166
		c-0.006-0.365-0.109-0.634-0.319-0.811l-0.314-0.264c-1.213-0.327-7.375-2.443-18.482-6.351c-4.062-1.449-6.867-3.104-8.41-4.967
		c-1.021-1.224-1.544-2.597-1.561-4.117c-0.017-1.339,0.353-2.789,1.107-4.344c0.832-1.658,2.955-3.208,6.361-4.642
		c3.181-1.328,6.83-2.314,10.947-2.954c2.447-0.392,4.685-0.602,6.719-0.623c1.444-0.022,2.801,0.056,4.062,0.222
		c3.385,0.423,5.407,1.455,6.074,3.097c0.662,1.561,1.004,2.988,1.021,4.278c0.01,0.98-0.161,1.885-0.514,2.712
		c-0.572,1.399-1.493,2.11-2.755,2.122c-0.667,0.011-1.423-0.16-2.25-0.514c-3.836-1.576-7.154-2.349-9.966-2.314
		c-2.992,0.039-5.391,0.992-7.198,2.872c0.463-0.006,5.705,1.477,15.715,4.447c7.479,2.205,11.239,5.203,11.288,8.991
		c0.084,0.54,0.127,1.069,0.133,1.582C356.676,706.392,354.521,709.655,350.172,712.411z"/>
	<path fill="#3B98D4" d="M406.498,713.221c-0.506-1.002-1.443-2.243-2.849-3.786c-0.513-0.573-0.865-0.98-1.064-1.234
		c-1.251-1.599-2.718-4.409-4.348-8.334c2.32-1.003,3.659-2.199,4.144-3.665c0.16-0.425,0.237-0.85,0.232-1.269
		c-0.011-0.585-0.183-1.467-0.959-2.343c-0.971-1.092-2.327-1.665-3.925-1.643c-0.552,0.006-1.284,0.104-2.238,0.298
		c-0.253,0.055-0.458,0.093-0.639,0.116c-0.044-0.133-0.1-0.304-0.155-0.52c-0.137-0.479-0.253-0.843-0.331-1.053
		c-1.284-3.758-2.353-8.157-3.18-13.074c-1.168-6.923-5.688-7.903-8.312-7.871c-2.496,0.071-4.68,1.798-6.487,5.104
		c-0.909,1.649-1.896,4.102-3.015,7.486c-0.32,0.937-0.535,1.56-0.623,1.818c-3.407,9.007-5.761,10.639-6.625,10.925
		c-1.627,0.552-2.823,1.136-3.688,1.814c-1.015,0.826-1.847,2.033-2.453,3.544c-0.242,0.556-0.363,1.102-0.358,1.615
		c0.006,0.572,0.171,1.118,0.508,1.632c0.347,0.495,1.168,1.316,2.805,1.301c0.111-0.006,0.227-0.006,0.354-0.018
		c-0.221,0.464-0.507,1.036-0.859,1.727c-2.784,5.478-3.087,7.562-3.076,8.647c0.006,0.469,0.082,0.899,0.209,1.241
		c0.342,0.959,1.02,1.669,2.013,2.078c0.501,0.187,1.03,0.28,1.582,0.274c1.846-0.021,3.659-1.263,5.71-3.907
		c0.992-1.302,3.373-5.155,7.265-11.78c3.17-0.617,5.595-0.965,7.193-1.024c0.209-0.006,0.596-0.022,1.152-0.067
		c0.645-0.054,1.146-0.082,1.499-0.087c1.361-0.017,1.886,0.281,1.968,0.435c0.551,1.01,1.351,2.641,2.375,4.84
		c0.993,2.15,1.749,3.698,2.311,4.74c0.705,1.307,1.809,2.905,3.367,4.896c2.833,3.594,5.132,5.253,7.222,5.226
		c0.898-0.006,2.558-0.342,3.528-2.464c0.373-0.822,0.562-1.688,0.55-2.564C407.288,715.256,407.018,714.225,406.498,713.221z
		 M381.358,693.279c-1.637,0.401-2.833,0.661-3.577,0.782c0.215-0.578,0.602-1.676,1.152-3.29c1.725-5.017,3.015-8.318,3.853-9.911
		c0.815,1.3,1.709,4.339,2.674,9.111c0.236,1.113,0.407,1.912,0.507,2.387C384.996,692.453,383.459,692.755,381.358,693.279z"/>
	<path fill="#3B98D4" d="M481.541,679.103c-1.88-2.14-5.232-4.117-10.247-6.041c-2.305-0.871-6.02-1.874-11.366-3.055
		c-0.375-0.082-0.641-0.271-0.871-0.617c-0.75-1.146-1.939-1.781-3.362-1.791c-1.791-0.149-3.528,0.502-5.121,1.896
		c-0.055,0.05-0.391,0.325-1.544,0.844c-1.173,0.522-2.022,1.086-2.601,1.729c-1.113,1.258-1.648,2.443-1.632,3.633
		c0.006,0.574,0.144,1.119,0.407,1.632c0.369,0.717,1.263,1.874,3.214,2.051c-0.011,0.198-0.038,0.425-0.077,0.667l-0.022,0.148
		l0.006,0.386c-0.006,0.54-0.065,1.34-0.176,2.414c-0.116,1.434-0.126,1.886-0.126,2.15c0.07,2.255,0.225,5.528,0.463,9.729
		l-0.899,0.673l-0.165,0.144c-1.086,1.042-1.302,2.122-1.296,2.851c0.006,0.197,0.022,0.396,0.056,0.627
		c0.137,0.783,0.617,1.902,2.11,2.806c0.469,0.281,0.717,0.452,0.844,0.546c0.148,0.392,0.458,1.57,0.496,4.763
		c0.006,0.407,0,0.85-0.006,1.328c-0.006,0.894-0.006,1.715,0.006,2.476c0.044,3.775,0.281,4.971,0.49,5.6
		c0.458,1.4,1.726,2.679,3.859,3.913c1.179,0.816,2.249,1.203,3.273,1.191c1.098-0.012,2.062-0.496,2.8-1.411
		c0.895-1.124,1.29-3.004,1.252-5.914l-0.006-0.552c-0.006-0.451-0.077-1.269-0.562-3.638c-0.463-2.178-0.761-3.648-0.871-4.377
		c-0.193-1.163-0.298-2.149-0.304-2.927c-0.011-0.59,0.039-0.942,0.083-1.141c0.838-0.171,2.745-0.557,5.688-1.164
		c2.641-0.54,4.824-1.09,6.489-1.642c5.147-1.693,8.682-4.383,10.482-7.998c1.064-2.106,1.594-4.123,1.572-5.992
		C483.85,682.839,483.067,680.844,481.541,679.103z M473.217,686.268c0.006,0.508-1.163,1.809-5.644,3.103
		c-1.147,0.332-3.969,0.894-8.407,1.67c-0.048-1.245-0.098-3.141-0.131-6.035c-0.017-1.124-0.028-2.635-0.044-4.524
		c6.817,1.509,8.24,1.851,8.394,1.89c5.529,1.974,5.827,3.512,5.832,3.804V686.268z"/>
	<path fill="#3B98D4" d="M442.107,679.103c-1.88-2.14-5.231-4.117-10.248-6.041c-2.304-0.871-6.018-1.874-11.365-3.055
		c-0.374-0.082-0.64-0.271-0.87-0.617c-0.75-1.146-1.941-1.781-3.363-1.791c-1.792-0.149-3.527,0.502-5.121,1.896
		c-0.054,0.05-0.39,0.325-1.543,0.844c-1.175,0.522-2.022,1.086-2.601,1.729c-1.114,1.258-1.649,2.443-1.632,3.633
		c0.006,0.574,0.143,1.119,0.407,1.632c0.369,0.717,1.263,1.874,3.214,2.051c-0.012,0.198-0.039,0.425-0.077,0.667l-0.022,0.148
		l0.006,0.386c-0.006,0.54-0.066,1.34-0.177,2.414c-0.116,1.434-0.127,1.886-0.127,2.15c0.072,2.255,0.227,5.528,0.463,9.729
		l-0.897,0.673l-0.166,0.144c-1.086,1.042-1.301,2.122-1.295,2.851c0.006,0.197,0.021,0.396,0.056,0.627
		c0.137,0.783,0.617,1.902,2.11,2.806c0.469,0.281,0.717,0.452,0.844,0.546c0.148,0.392,0.457,1.57,0.496,4.763
		c0.006,0.407,0,0.85-0.006,1.328c-0.006,0.894-0.006,1.715,0.006,2.476c0.044,3.775,0.28,4.971,0.49,5.6
		c0.457,1.4,1.726,2.679,3.857,3.913c1.18,0.816,2.249,1.203,3.275,1.191c1.097-0.012,2.061-0.496,2.8-1.411
		c0.893-1.124,1.29-3.004,1.251-5.914l-0.005-0.552c-0.006-0.451-0.077-1.269-0.563-3.638c-0.462-2.178-0.76-3.648-0.87-4.377
		c-0.192-1.163-0.298-2.149-0.303-2.927c-0.011-0.59,0.039-0.942,0.083-1.141c0.836-0.171,2.744-0.557,5.688-1.164
		c2.641-0.54,4.822-1.09,6.488-1.642c5.147-1.693,8.681-4.383,10.483-7.998c1.064-2.106,1.593-4.123,1.57-5.992
		C444.416,682.839,443.634,680.844,442.107,679.103z M433.783,686.268c0.006,0.508-1.162,1.809-5.645,3.103
		c-1.146,0.332-3.968,0.894-8.405,1.67c-0.05-1.245-0.1-3.141-0.133-6.035c-0.016-1.124-0.026-2.635-0.044-4.524
		c6.819,1.509,8.241,1.851,8.396,1.89c5.528,1.974,5.826,3.512,5.831,3.804V686.268z"/>
	<path fill="#3B98D4" d="M273.72,703.531c-3.169-5.97-5.347-11.459-6.543-16.47c-0.761-3.087-1.174-7.629-1.251-13.637
		c-0.011-0.927-0.006-1.892,0.005-2.9c0.006-1.802,0-3.141-0.011-4.018l-0.028-2.281c-0.083-6.599-0.341-11.251-0.788-13.952
		c-0.193-1.234-0.606-2.452-1.24-3.659c-0.766-1.405-1.576-2.146-2.425-2.217c-0.287-0.021-0.568-0.026-0.854-0.026
		c-1.753,0.021-3.147,0.594-4.195,1.714c-1.527,1.62-2.26,4.938-2.2,9.966c0.011,0.798,0.05,1.637,0.11,2.513l0.044,0.386
		c0.033,0.8,0.061,1.858,0.077,3.17c0.022,1.753,0.022,3.957,0.006,6.614c-0.028,2.111-0.033,4.019-0.011,5.722
		c0.044,3.379,0.16,5.914,0.363,7.612c0.012,1.086-2.199,2.541-6.637,4.377c-1.796,0.744-2.948,1.284-3.461,1.626
		c-3.952,2.756-7.083,5.584-9.387,8.477c-1.114,1.257-2.442,2.817-4.001,4.68c-2.972,3.595-5.964,5.744-8.974,6.449
		c-0.716,0.167-1.411,0.249-2.083,0.26c-2.343,0.028-4.431-0.927-6.262-2.866c-0.859-0.915-1.323-1.647-1.377-2.189v-0.077
		c-0.006-0.435,0.258-0.798,0.799-1.09c0.231-0.105,0.92-0.37,2.078-0.8c1.025-0.368,1.847-0.767,2.458-1.191
		c3.759-2.518,5.616-5.804,5.566-9.85c-0.016-1.367-0.253-2.833-0.71-4.398c-1.72-3.461-3.776-6.052-6.168-7.778
		c-2.105-1.515-4.354-2.265-6.752-2.237c-0.876,0.012-1.764,0.127-2.668,0.342c-6.609,1.556-10.23,4.625-10.87,9.223
		c-0.353,2.557-0.518,4.905-0.491,7.044c0.061,5.076,1.191,9.062,3.39,11.944c6.471,8.483,13.482,12.678,21.034,12.585
		c1.521-0.018,3.053-0.205,4.597-0.558c2.006-0.728,3.991-1.809,5.959-3.234c0.005,0.021,0.005,0.042,0.011,0.065
		c0.028,2.396,2.056,3.571,6.075,3.521c2.838-0.033,5.936-0.535,9.304-1.504c7.243-2.073,12.083-5.805,14.519-11.195
		c0.391,0.513,1.064,1.493,2.007,2.954c3.863,5.986,6.917,8.962,9.161,8.936c1.852-0.023,3.445-1.511,4.779-4.465
		c0.198-0.469,0.298-0.959,0.287-1.473C276.944,707.968,275.864,705.929,273.72,703.531z M208.109,696.443
		c-1.769-1.269-2.673-3.627-2.712-7.083c-0.022-1.55,0.259-2.762,0.843-3.645c0.557-0.859,1.351-1.295,2.381-1.307
		c0.177-0.004,0.375,0.006,0.579,0.028c1.604,0.188,2.822,0.921,3.66,2.199c0.634,0.947,0.954,2.039,0.97,3.279
		c0.006,0.254-0.005,0.513-0.027,0.772c-0.138,1.57-0.689,2.893-1.654,3.963C211.108,695.826,209.758,696.42,208.109,696.443z
		 M250.536,702.115c-2.26,2.523-4.526,3.804-6.796,3.83l-1.048-0.105c-0.419-0.506-0.628-1.057-0.639-1.652
		c0-0.26,0.033-0.514,0.11-0.771c0.419-1.555,2.023-3.236,4.812-5.049c2.25-1.494,4.669-2.724,7.259-3.683
		C253.931,697.187,252.696,699.662,250.536,702.115z"/>
</g>
<g>
	<path fill="#3B98D4" d="M327.811,476.15c-0.297,0.564-0.754,1.734-1.365,3.512c-0.195,0.572-0.332,0.961-0.408,1.166
		c0.264-0.043,0.688-0.135,1.268-0.277c0.744-0.186,1.289-0.293,1.633-0.326c-0.035-0.168-0.096-0.451-0.18-0.846
		C328.416,477.688,328.1,476.611,327.811,476.15z"/>
	<path fill="#3B98D4" d="M277.982,484.143c-0.027,0.092-0.039,0.182-0.039,0.273c0.004,0.211,0.078,0.406,0.227,0.586l0.371,0.037
		c0.805-0.01,1.607-0.463,2.408-1.357c0.766-0.869,1.203-1.746,1.311-2.633c-0.918,0.34-1.775,0.775-2.572,1.305
		C278.699,482.996,278.131,483.592,277.982,484.143z"/>
	<path fill="#3B98D4" d="M343.814,476.687c-0.055-0.015-0.559-0.136-2.975-0.67c0.006,0.669,0.01,1.204,0.016,1.603
		c0.012,1.025,0.029,1.697,0.047,2.139c1.572-0.275,2.572-0.475,2.979-0.592c1.588-0.459,2.002-0.92,2-1.1v-0.033
		C345.879,477.93,345.773,477.385,343.814,476.687z"/>
	<path fill="#3B98D4" d="M267.943,479.359c-0.006-0.439-0.119-0.826-0.344-1.162c-0.297-0.453-0.729-0.713-1.297-0.779
		c-0.072-0.008-0.143-0.012-0.205-0.01c-0.365,0.004-0.646,0.158-0.844,0.463c-0.207,0.312-0.307,0.742-0.299,1.291
		c0.014,1.225,0.334,2.061,0.961,2.51c0.584-0.008,1.062-0.219,1.432-0.635c0.342-0.379,0.537-0.848,0.586-1.404
		C267.941,479.541,267.945,479.449,267.943,479.359z"/>
	<path fill="#3B98D4" d="M361.896,344.896H233.384c-7.828,0-14.174,6.346-14.174,14.173v128.513c0,7.827,6.346,14.173,14.174,14.173
		h128.513c7.828,0,14.174-6.346,14.174-14.173V359.069C376.07,351.241,369.725,344.896,361.896,344.896z M260.052,488.797
		c-0.292,0.004-0.629-0.045-1.014-0.146c-1.473-0.391-2.524-1.02-3.156-1.885c-0.699-0.955-1.354-2.547-1.962-4.775
		c-0.649-2.332-1.257-3.943-1.823-4.836c0,0.014-0.271,1.021-0.816,3.025c-0.43,1.578-0.844,2.885-1.241,3.922
		c-1.229,3.254-2.616,4.922-4.163,5.008h-0.039c-1.229,0.014-2.213-2.062-2.951-6.23c-0.511-2.863-0.766-4.314-0.768-4.354
		c-0.28-1.332-0.599-1.995-0.955-1.991c0.001,0.106-0.957,2.921-2.872,8.442c-0.613,1.793-1.292,2.979-2.039,3.555
		c-0.406,0.309-0.841,0.467-1.303,0.473c-0.648,0.008-1.351,0.047-2.124-0.525c0,0-0.893-0.645-1.151-1.926
		c-0.535-2.656,7.692-16.75,7.692-16.75c0.814-1.279,1.249-1.273,1.897-1.281c0.542-0.006,1.119,0.165,1.731,0.515
		c0.852,0.492,1.638,2.062,2.357,4.711c0.899,3.308,1.39,5.046,1.471,5.218c0.168-0.359,0.79-2.502,1.865-6.429
		c0.747-2.719,1.705-4.356,2.875-4.913c2.57,0.379,4.725,3.083,6.465,8.111c0.438,1.264,1.052,3.338,1.84,6.225
		c0.679,2.49,1.208,4.195,1.591,5.115C261.473,488.213,261.004,488.785,260.052,488.797z M290.211,486.871
		c-0.473,1.047-1.037,1.574-1.693,1.582c-0.795,0.01-1.877-1.045-3.246-3.166c-0.334-0.518-0.572-0.865-0.711-1.047
		c-0.863,1.91-2.578,3.232-5.145,3.967c-1.193,0.344-2.291,0.521-3.297,0.533c-1.424,0.018-2.143-0.398-2.152-1.248
		c-0.002-0.008-0.002-0.016-0.004-0.023c-0.697,0.506-1.4,0.889-2.111,1.146c-0.547,0.125-1.09,0.191-1.629,0.197
		c-2.676,0.033-5.16-1.453-7.453-4.459c-0.779-1.021-1.18-2.434-1.201-4.232c-0.01-0.758,0.049-1.59,0.174-2.496
		c0.227-1.628,1.51-2.717,3.852-3.267c0.32-0.077,0.635-0.117,0.945-0.121c0.85-0.01,1.646,0.255,2.393,0.793
		c0.848,0.611,1.576,1.529,2.186,2.755c0.162,0.555,0.246,1.074,0.252,1.559c0.018,1.434-0.641,2.598-1.973,3.49
		c-0.217,0.15-0.508,0.291-0.871,0.422c-0.41,0.152-0.654,0.246-0.736,0.283c-0.191,0.104-0.285,0.232-0.283,0.387v0.027
		c0.02,0.191,0.184,0.451,0.488,0.775c0.648,0.688,1.389,1.025,2.219,1.016c0.238-0.004,0.484-0.033,0.738-0.092
		c1.066-0.25,2.127-1.012,3.18-2.285c0.553-0.66,1.023-1.213,1.418-1.658c0.816-1.025,1.926-2.027,3.326-3.004
		c0.182-0.121,0.59-0.312,1.227-0.576c1.572-0.65,2.355-1.166,2.352-1.55c-0.072-0.603-0.113-1.501-0.129-2.698
		c-0.008-0.603-0.006-1.278,0.004-2.027c0.006-0.941,0.006-1.723-0.002-2.344c-0.006-0.465-0.016-0.84-0.027-1.123l-0.016-0.137
		c-0.021-0.311-0.035-0.607-0.039-0.891c-0.021-1.78,0.238-2.957,0.779-3.53c0.371-0.397,0.865-0.6,1.486-0.607
		c0.102-0.001,0.201,0.002,0.303,0.01c0.301,0.024,0.588,0.286,0.859,0.784c0.225,0.428,0.371,0.859,0.439,1.297
		c0.158,0.957,0.25,2.605,0.279,4.943l0.01,0.809c0.004,0.311,0.006,0.785,0.004,1.424c-0.004,0.357-0.006,0.699-0.002,1.028
		c0.027,2.128,0.174,3.737,0.443,4.831c0.424,1.775,1.195,3.721,2.318,5.836c0.76,0.85,1.143,1.572,1.148,2.166
		C290.316,486.531,290.281,486.705,290.211,486.871z M303.547,489.504c-0.559,0.006-1.096-0.201-1.611-0.625
		c-0.721-0.584-1.293-1.889-1.719-3.912c-0.127-0.6-0.225-1.029-0.291-1.283c-0.652,1.213-1.557,2.299-2.715,3.252
		c-1.238,1.021-2.365,1.537-3.379,1.549c-0.822,0.01-1.465-0.334-1.93-1.031c-0.494-0.752-0.75-1.881-0.768-3.389
		c-0.02-1.57,0.254-3.424,0.822-5.561c0.717-2.738,1.621-4.134,2.717-4.184h0.014c0.402-0.005,0.715,0.123,0.938,0.386
		c0.223,0.271,0.338,0.769,0.346,1.489c0.014,1.068-0.201,2.625-0.641,4.666c-0.338,1.576-0.504,2.605-0.498,3.09
		c0.002,0.174,0.025,0.277,0.072,0.314c0.047-0.002,0.109-0.025,0.191-0.072c1.242-0.781,2.156-1.912,2.74-3.389
		c0.336-0.855,0.627-2.105,0.873-3.752c0.152-1.034,0.299-1.73,0.439-2.088c0.23-0.569,0.588-0.856,1.072-0.862
		c0.949-0.012,1.625,0.638,2.023,1.948c0.238,0.764,0.418,2.037,0.541,3.816c0.066,0.939,0.129,1.568,0.188,1.889
		c0.107,0.555,0.383,1.43,0.826,2.621c0.623,1.682,0.939,2.91,0.949,3.688C304.76,489.014,304.359,489.494,303.547,489.504z
		 M316.254,487.33c-1.441,0.914-2.889,1.379-4.34,1.396l-0.246,0.004c-0.521,0.006-1.002-0.121-1.443-0.381
		c-0.414-0.242-0.701-0.545-0.861-0.908c-0.066-0.162-0.1-0.318-0.102-0.463c-0.002-0.211,0.055-0.408,0.172-0.592
		c0.232-0.359,0.672-0.621,1.318-0.783c1.578-0.275,2.371-0.414,2.379-0.414c0.857-0.221,1.283-0.477,1.279-0.768
		c-0.002-0.129-0.039-0.225-0.113-0.287l-0.111-0.094c-0.43-0.115-2.613-0.865-6.549-2.25c-1.439-0.514-2.434-1.1-2.98-1.76
		c-0.361-0.434-0.547-0.92-0.553-1.459c-0.006-0.475,0.125-0.988,0.393-1.539c0.295-0.588,1.047-1.137,2.254-1.645
		c1.127-0.471,2.42-0.819,3.879-1.047c0.867-0.139,1.66-0.213,2.381-0.221c0.512-0.007,0.992,0.02,1.439,0.078
		c1.199,0.15,1.916,0.516,2.152,1.098c0.234,0.554,0.355,1.06,0.361,1.516c0.004,0.348-0.057,0.668-0.182,0.961
		c-0.203,0.496-0.529,0.748-0.977,0.752c-0.236,0.004-0.504-0.057-0.797-0.182c-1.359-0.559-2.535-0.832-3.531-0.82
		c-1.061,0.014-1.91,0.352-2.551,1.018c0.164-0.002,2.021,0.523,5.568,1.576c2.65,0.781,3.982,1.844,4,3.186
		c0.029,0.191,0.045,0.379,0.047,0.561C318.559,485.197,317.795,486.354,316.254,487.33z M336.301,489.607
		c-0.344,0.752-0.932,0.871-1.25,0.873c-0.74,0.01-1.555-0.578-2.559-1.852c-0.553-0.705-0.943-1.271-1.193-1.734
		c-0.199-0.369-0.467-0.918-0.818-1.68c-0.363-0.779-0.646-1.357-0.842-1.715c-0.029-0.055-0.215-0.16-0.697-0.154
		c-0.125,0.002-0.303,0.012-0.531,0.031c-0.197,0.016-0.334,0.021-0.408,0.023c-0.566,0.021-1.426,0.145-2.549,0.363
		c-1.379,2.348-2.223,3.713-2.574,4.174c-0.727,0.938-1.369,1.377-2.023,1.385c-0.195,0.002-0.383-0.031-0.561-0.098
		c-0.352-0.145-0.592-0.396-0.713-0.736c-0.045-0.121-0.072-0.273-0.074-0.439c-0.004-0.385,0.104-1.123,1.09-3.064
		c0.125-0.244,0.227-0.447,0.305-0.611c-0.045,0.004-0.086,0.004-0.125,0.006c-0.58,0.006-0.871-0.285-0.994-0.461
		c-0.119-0.182-0.178-0.375-0.18-0.578c-0.002-0.182,0.041-0.375,0.127-0.572c0.215-0.535,0.51-0.963,0.869-1.256
		c0.307-0.24,0.73-0.447,1.307-0.643c0.307-0.102,1.141-0.68,2.348-3.871c0.031-0.092,0.107-0.312,0.221-0.644
		c0.396-1.2,0.746-2.069,1.068-2.653c0.641-1.172,1.414-1.782,2.299-1.809c0.93-0.012,2.531,0.336,2.945,2.789
		c0.293,1.742,0.672,3.301,1.127,4.633c0.027,0.074,0.068,0.203,0.117,0.373c0.02,0.076,0.039,0.137,0.055,0.184
		c0.064-0.008,0.137-0.021,0.227-0.041c0.338-0.068,0.598-0.104,0.793-0.105c0.566-0.008,1.047,0.195,1.391,0.582
		c0.275,0.311,0.336,0.623,0.34,0.83c0.002,0.148-0.025,0.299-0.082,0.449c-0.172,0.52-0.646,0.943-1.469,1.299
		c0.578,1.391,1.098,2.387,1.541,2.953c0.07,0.09,0.195,0.234,0.377,0.438c0.498,0.547,0.83,0.986,1.01,1.342
		c0.184,0.355,0.279,0.721,0.283,1.082C336.5,489.01,336.434,489.316,336.301,489.607z M349.102,479.754
		c-0.639,1.281-1.891,2.234-3.715,2.834c-0.59,0.195-1.363,0.391-2.299,0.582c-1.043,0.215-1.719,0.352-2.016,0.412
		c-0.016,0.07-0.033,0.195-0.029,0.404c0.002,0.275,0.039,0.625,0.107,1.037c0.039,0.258,0.145,0.779,0.309,1.551
		c0.172,0.84,0.197,1.129,0.199,1.289l0.002,0.195c0.014,1.031-0.127,1.697-0.443,2.096c-0.262,0.324-0.604,0.496-0.992,0.5
		c-0.363,0.004-0.742-0.133-1.16-0.422c-0.756-0.438-1.205-0.891-1.367-1.387c-0.074-0.223-0.158-0.646-0.174-1.984
		c-0.004-0.27-0.004-0.561-0.002-0.877c0.002-0.17,0.004-0.326,0.002-0.471c-0.014-1.131-0.123-1.549-0.176-1.688
		c-0.045-0.033-0.133-0.094-0.299-0.193c-0.529-0.32-0.699-0.717-0.748-0.994c-0.012-0.082-0.018-0.152-0.02-0.223
		c-0.002-0.258,0.074-0.641,0.459-1.01l0.059-0.051l0.318-0.238c-0.084-1.488-0.139-2.648-0.164-3.447
		c0-0.094,0.004-0.254,0.045-0.762c0.039-0.381,0.061-0.664,0.062-0.855l-0.002-0.137l0.008-0.052
		c0.014-0.087,0.023-0.166,0.027-0.236c-0.691-0.062-1.008-0.473-1.139-0.727c-0.094-0.182-0.143-0.376-0.145-0.579
		c-0.006-0.422,0.184-0.842,0.578-1.287c0.205-0.229,0.506-0.428,0.922-0.612c0.408-0.184,0.527-0.281,0.547-0.299
		c0.564-0.495,1.18-0.726,1.814-0.673c0.504,0.004,0.926,0.229,1.191,0.635c0.082,0.124,0.176,0.19,0.309,0.219
		c1.895,0.419,3.211,0.773,4.027,1.083c1.777,0.682,2.965,1.382,3.631,2.14c0.541,0.617,0.818,1.324,0.828,2.104
		C349.666,478.293,349.479,479.008,349.102,479.754z M363.074,479.754c-0.639,1.281-1.891,2.234-3.715,2.834
		c-0.59,0.195-1.363,0.391-2.299,0.582c-1.043,0.215-1.719,0.352-2.016,0.412c-0.016,0.07-0.033,0.195-0.029,0.404
		c0.002,0.275,0.039,0.625,0.107,1.037c0.039,0.258,0.145,0.779,0.309,1.551c0.172,0.84,0.197,1.129,0.199,1.289l0.002,0.195
		c0.014,1.031-0.127,1.697-0.443,2.096c-0.262,0.324-0.604,0.496-0.992,0.5c-0.363,0.004-0.742-0.133-1.16-0.422
		c-0.756-0.438-1.205-0.891-1.367-1.387c-0.074-0.223-0.158-0.646-0.174-1.984c-0.004-0.27-0.004-0.561-0.002-0.877
		c0.002-0.17,0.004-0.326,0.002-0.471c-0.014-1.131-0.123-1.549-0.176-1.688c-0.045-0.033-0.133-0.094-0.299-0.193
		c-0.529-0.32-0.699-0.717-0.748-0.994c-0.012-0.082-0.018-0.152-0.02-0.223c-0.002-0.258,0.074-0.641,0.459-1.01l0.059-0.051
		l0.318-0.238c-0.084-1.488-0.139-2.648-0.164-3.447c0-0.094,0.004-0.254,0.045-0.762c0.039-0.381,0.061-0.664,0.062-0.855
		l-0.002-0.137l0.008-0.052c0.014-0.087,0.023-0.166,0.027-0.236c-0.691-0.062-1.008-0.473-1.139-0.727
		c-0.094-0.182-0.143-0.376-0.145-0.579c-0.006-0.422,0.184-0.842,0.578-1.287c0.205-0.229,0.506-0.428,0.922-0.612
		c0.408-0.184,0.527-0.281,0.547-0.299c0.564-0.495,1.18-0.726,1.814-0.673c0.504,0.004,0.926,0.229,1.191,0.635
		c0.082,0.124,0.176,0.19,0.309,0.219c1.895,0.419,3.211,0.773,4.027,1.083c1.777,0.682,2.965,1.382,3.631,2.14
		c0.541,0.617,0.818,1.324,0.828,2.104C363.639,478.293,363.451,479.008,363.074,479.754z M366.191,409.435
		c0,13.573-4.688,23.242-11.008,30.113c-2.223,0.145-5.857-0.108-12.066-1.299c-2.262-0.434-4.449,1.049-4.883,3.312
		s1.049,4.448,3.311,4.882c1.6,0.307,3.064,0.559,4.422,0.765c-11.658,7.444-24.023,8.807-24.023,8.807s-12.166,7.313-22.074,3.657
		c-5.458-2.017-8.483-6.192-9.755-10.469v0.25h-18.152c-11.398-1.024-20.529-0.944-22.602-0.118c-2.51,1.406-5.697,0.552-7.162-1.94
		c-0.498-0.844-0.736-1.77-0.736-2.686c0-1.816,0.936-3.588,2.617-4.576c4.646-2.732,17.643-2.25,27.883-1.342
		c1.516,0,2.818-1.225,2.818-2.697c0-1.468-1.232-2.662-2.75-2.662c-0.021,0-0.045-0.004-0.068-0.001
		c-14.572,1.202-32.541-2.395-33.322-2.556c-2.512-0.509-4.248-2.721-4.248-5.19c0-0.349,0.033-0.705,0.107-1.06
		c0.582-2.871,3.379-4.727,6.252-4.145c0.174,0.033,16.729,3.34,29.678,2.425c0.232,0.043,0.473,0.072,0.721,0.072
		c2.127,0,3.85-1.675,3.85-3.739c0-1.789-1.301-3.284-3.037-3.648v-0.086c-1.789-0.203-24.107-2.671-37.021-1.326
		c-2.91,0.304-5.52-1.812-5.822-4.726c-0.021-0.186-0.029-0.373-0.029-0.557c0-2.682,2.027-4.984,4.756-5.269
		c12.77-1.329,32.729,0.47,38.117,1.049c0.023,0,0.047,0.004,0.072,0.004c3.896,0,7.057-3.068,7.057-6.846
		c0-2.063-1.725-3.735-3.852-3.735c-0.248,0-0.248,0-0.703-0.034c-12.977-0.92-29.523,2.492-29.693,2.527
		c-2.875,0.584-5.672-1.271-6.254-4.142c-0.074-0.357-0.107-0.712-0.107-1.061c0-2.471,1.732-4.683,4.248-5.193
		c0.779-0.159,18.748-3.756,33.322-2.552v-0.009c0.023,0,0.047,0.007,0.068,0.007c1.518,0,2.748-1.194,2.748-2.666
		c0-1.471-1.23-2.665-2.748-2.665c-0.021,0-0.045,0.007-0.068,0.007c-10.24,0.909-23.236,2.014-27.883-0.719
		c-1.682-0.988-2.617-2.758-2.617-4.578c0-0.911,0.236-1.839,0.734-2.683c1.467-2.491,4.654-3.348,7.164-1.938
		c2.072,0.824,11.201,0.056,22.602-0.969h14.062v0.058c1.271-4.275,4.297-8.454,9.755-10.469c9.908-3.657,22.074,3.656,22.074,3.656
		s44.248,4.867,44.248,46.58c0,0.374-0.02,0.728-0.029,1.089C366.172,408.707,366.191,409.061,366.191,409.435z"/>
	<path fill="#3B98D4" d="M357.787,476.687c-0.055-0.015-0.559-0.136-2.975-0.67c0.006,0.669,0.01,1.204,0.016,1.603
		c0.012,1.025,0.029,1.697,0.047,2.139c1.572-0.275,2.572-0.475,2.979-0.592c1.588-0.459,2.002-0.92,2-1.1v-0.033
		C359.852,477.93,359.746,477.385,357.787,476.687z"/>
	<circle fill="#3B98D4" cx="330.363" cy="421.485" r="4.758"/>
</g>
</svg>
